<mxfile host="65bd71144e">
    <diagram id="w-CzXoQm1XBF6UdcvO8f" name="第1頁">
        <mxGraphModel dx="709" dy="472" grid="1" gridSize="10" guides="1" tooltips="1" connect="1" arrows="1" fold="1" page="1" pageScale="1" pageWidth="827" pageHeight="1169" math="0" shadow="0">
            <root>
                <mxCell id="0"/>
                <mxCell id="1" parent="0"/>
                <mxCell id="2" value="Lottery&lt;br&gt;●&lt;br&gt;●&lt;br&gt;●" style="whiteSpace=wrap;html=1;fontFamily=Fira Code;fontSource=https%3A%2F%2Ffonts.googleapis.com%2Fcss%3Ffamily%3DFira%2BCode;" vertex="1" parent="1">
                    <mxGeometry x="200" y="40" width="120" height="40" as="geometry"/>
                </mxCell>
                <mxCell id="3" value="3D&lt;br&gt;(三星彩)" style="whiteSpace=wrap;html=1;fontFamily=Fira Code;fontSource=https%3A%2F%2Ffonts.googleapis.com%2Fcss%3Ffamily%3DFira%2BCode;" vertex="1" parent="1">
                    <mxGeometry x="40" y="40" width="120" height="40" as="geometry"/>
                </mxCell>
                <mxCell id="4" value="4D&lt;br&gt;(四星彩)" style="whiteSpace=wrap;html=1;fontFamily=Fira Code;fontSource=https%3A%2F%2Ffonts.googleapis.com%2Fcss%3Ffamily%3DFira%2BCode;" vertex="1" parent="1">
                    <mxGeometry x="40" y="120" width="120" height="40" as="geometry"/>
                </mxCell>
                <mxCell id="5" value="39M5&lt;br&gt;(39樂合彩)" style="whiteSpace=wrap;html=1;fontFamily=Fira Code;fontSource=https%3A%2F%2Ffonts.googleapis.com%2Fcss%3Ffamily%3DFira%2BCode;" vertex="1" parent="1">
                    <mxGeometry x="40" y="200" width="120" height="40" as="geometry"/>
                </mxCell>
                <mxCell id="6" value="49M6&lt;br&gt;(49樂合彩)" style="whiteSpace=wrap;html=1;fontFamily=Fira Code;fontSource=https%3A%2F%2Ffonts.googleapis.com%2Fcss%3Ffamily%3DFira%2BCode;" vertex="1" parent="1">
                    <mxGeometry x="40" y="280" width="120" height="40" as="geometry"/>
                </mxCell>
                <mxCell id="7" value="SuperLotto638&lt;br&gt;(威力彩)" style="whiteSpace=wrap;html=1;fontFamily=Fira Code;fontSource=https%3A%2F%2Ffonts.googleapis.com%2Fcss%3Ffamily%3DFira%2BCode;" vertex="1" parent="1">
                    <mxGeometry x="40" y="600" width="120" height="40" as="geometry"/>
                </mxCell>
                <mxCell id="8" value="Lotto649&lt;br&gt;(大樂透)" style="whiteSpace=wrap;html=1;fontFamily=Fira Code;fontSource=https%3A%2F%2Ffonts.googleapis.com%2Fcss%3Ffamily%3DFira%2BCode;" vertex="1" parent="1">
                    <mxGeometry x="40" y="520" width="120" height="40" as="geometry"/>
                </mxCell>
                <mxCell id="9" value="Daily539&lt;br&gt;(今彩539)" style="whiteSpace=wrap;html=1;fontFamily=Fira Code;fontSource=https%3A%2F%2Ffonts.googleapis.com%2Fcss%3Ffamily%3DFira%2BCode;" vertex="1" parent="1">
                    <mxGeometry x="40" y="440" width="120" height="40" as="geometry"/>
                </mxCell>
                <mxCell id="10" value="Bingo&lt;br&gt;(賓果賓果)" style="whiteSpace=wrap;html=1;fontFamily=Fira Code;fontSource=https%3A%2F%2Ffonts.googleapis.com%2Fcss%3Ffamily%3DFira%2BCode;" vertex="1" parent="1">
                    <mxGeometry x="40" y="360" width="120" height="40" as="geometry"/>
                </mxCell>
            </root>
        </mxGraphModel>
    </diagram>
</mxfile>